<svg width="34" height="34" viewBox="0 0 34 34" fill="none" xmlns="http://www.w3.org/2000/svg">
<circle cx="17" cy="17" r="17" fill="#37B1B8"/>
<g clip-path="url(#clip0_30_17)">
<path d="M24.3815 10.6621H21.921L20.2806 8.20178H13.7192L12.0789 10.6623H9.61836C8.25892 10.6623 7.15784 11.7765 7.15784 13.1355V22.1448C7.15784 23.5042 8.25892 24.6053 9.61836 24.6053H24.3815C25.741 24.6053 26.842 23.5167 26.842 22.1575V13.1483C26.842 11.7888 25.741 10.6621 24.3815 10.6621ZM25.2017 22.1575C25.2017 22.6108 24.8414 22.9649 24.3815 22.9649H9.61836C9.16604 22.9649 8.79819 22.5971 8.79819 22.1448V13.1355C8.79819 12.6765 9.16604 12.3027 9.61836 12.3027H12.9567L14.597 9.84213H19.4316L21.043 12.3027H24.3815C24.8261 12.3027 25.2017 12.69 25.2017 13.1485V22.1575ZM16.9999 13.1228C14.735 13.1228 12.8991 14.959 12.8991 17.2237C12.8991 19.4884 14.7352 21.3246 16.9999 21.3246C19.2649 21.3246 21.1008 19.4886 21.1008 17.2237C21.1008 14.9588 19.2649 13.1228 16.9999 13.1228ZM16.9999 19.6842C15.6432 19.6842 14.5394 18.5805 14.5394 17.2237C14.5394 15.8669 15.643 14.7632 16.9999 14.7632C18.3567 14.7632 19.4605 15.8669 19.4605 17.2237C19.4605 18.5805 18.3565 19.6842 16.9999 19.6842Z" fill="white"/>
</g>
<defs>
<clipPath id="clip0_30_17">
<rect width="19.6842" height="19.6842" fill="white" transform="translate(7.15784 6.5614)"/>
</clipPath>
</defs>
</svg>
