<svg width="44" height="44" viewBox="0 0 44 44" fill="none" xmlns="http://www.w3.org/2000/svg">
<path d="M33 14.6667H36.6667C37.1529 14.6667 37.6192 14.8599 37.963 15.2037C38.3068 15.5475 38.5 16.0138 38.5 16.5V29.3334C38.5 29.8196 38.3068 30.2859 37.963 30.6297C37.6192 30.9736 37.1529 31.1667 36.6667 31.1667H33V36.6667L25.6667 31.1667H18.3333M25.6667 7.33337H7.33333C6.8471 7.33337 6.38079 7.52653 6.03697 7.87035C5.69315 8.21416 5.5 8.68048 5.5 9.16671V22C5.5 22.4863 5.69315 22.9526 6.03697 23.2964C6.38079 23.6402 6.8471 23.8334 7.33333 23.8334H11V29.3334L18.3333 23.8334H25.6667C26.1529 23.8334 26.6192 23.6402 26.963 23.2964C27.3068 22.9526 27.5 22.4863 27.5 22V9.16671C27.5 8.68048 27.3068 8.21416 26.963 7.87035C26.6192 7.52653 26.1529 7.33337 25.6667 7.33337Z" stroke="white" stroke-width="2" stroke-linecap="round" stroke-linejoin="round"/>
</svg>
