<svg width="24" height="24" viewBox="0 0 24 24" fill="none" xmlns="http://www.w3.org/2000/svg">
<path d="M20 3H4C3.46957 3 2.96086 3.21071 2.58579 3.58579C2.21071 3.96086 2 4.46957 2 5V19C2 19.5304 2.21071 20.0391 2.58579 20.4142C2.96086 20.7893 3.46957 21 4 21H20C20.5304 21 21.0391 20.7893 21.4142 20.4142C21.7893 20.0391 22 19.5304 22 19V5C22 4.46957 21.7893 3.96086 21.4142 3.58579C21.0391 3.21071 20.5304 3 20 3ZM14.5 7C14.7967 7 15.0867 7.08797 15.3334 7.2528C15.58 7.41762 15.7723 7.65189 15.8858 7.92597C15.9994 8.20006 16.0291 8.50166 15.9712 8.79264C15.9133 9.08361 15.7704 9.35088 15.5607 9.56066C15.3509 9.77044 15.0836 9.9133 14.7926 9.97118C14.5017 10.0291 14.2001 9.99935 13.926 9.88582C13.6519 9.77229 13.4176 9.58003 13.2528 9.33335C13.088 9.08668 13 8.79667 13 8.5C13 8.10218 13.158 7.72064 13.4393 7.43934C13.7206 7.15804 14.1022 7 14.5 7ZM18.876 17.481C18.7898 17.638 18.6631 17.769 18.509 17.8603C18.3549 17.9516 18.1791 17.9999 18 18H6C5.82952 18.0001 5.66186 17.9566 5.51293 17.8736C5.364 17.7907 5.23874 17.671 5.14907 17.526C5.05939 17.381 5.00827 17.2155 5.00056 17.0452C4.99285 16.8749 5.0288 16.7055 5.105 16.553L8.605 9.553C8.68557 9.39154 8.80833 9.25488 8.96026 9.15753C9.1122 9.06017 9.28764 9.00574 9.468 9C9.64992 8.98988 9.83098 9.03147 9.99025 9.11995C10.1495 9.20843 10.2805 9.3402 10.368 9.5L13.143 14.257L14.689 12.37C14.7894 12.2477 14.9174 12.151 15.0625 12.0878C15.2076 12.0246 15.3656 11.9967 15.5236 12.0065C15.6815 12.0162 15.8349 12.0633 15.9711 12.1439C16.1073 12.2245 16.2224 12.3363 16.307 12.47L18.848 16.47C18.9421 16.6208 18.9943 16.794 18.9992 16.9717C19.0042 17.1494 18.9616 17.3252 18.876 17.481Z" fill="white"/>
</svg>
