<svg width="26" height="26" viewBox="0 0 26 26" fill="none" xmlns="http://www.w3.org/2000/svg">
<path d="M13.0183 0C11.3135 0 9.62542 0.33624 8.05041 0.989522C6.4754 1.6428 5.04431 2.60034 3.83884 3.80744C1.4043 6.24531 0.0365907 9.55176 0.0365907 12.9994C0.0252419 16.0012 1.06317 18.9123 2.97046 21.2281L0.374115 23.8279C0.193984 24.0107 0.0719608 24.2429 0.0234428 24.4951C-0.0250752 24.7472 0.00208603 25.0082 0.101499 25.2449C0.209322 25.4788 0.384116 25.6753 0.603692 25.8096C0.823268 25.9438 1.07772 26.0097 1.33476 25.9988H13.0183C16.4613 25.9988 19.7632 24.6293 22.1977 22.1914C24.6323 19.7535 26 16.4471 26 12.9994C26 9.55176 24.6323 6.24531 22.1977 3.80744C19.7632 1.36958 16.4613 0 13.0183 0ZM13.0183 23.399H4.46335L5.67065 22.19C5.91244 21.9465 6.04815 21.617 6.04815 21.2736C6.04815 20.9301 5.91244 20.6007 5.67065 20.3571C3.97081 18.6568 2.91226 16.419 2.67537 14.0248C2.43848 11.6306 3.03789 9.2283 4.37148 7.22706C5.70507 5.22582 7.69033 3.7495 9.98903 3.04963C12.2877 2.34976 14.7577 2.46964 16.978 3.38884C19.1983 4.30804 21.0317 5.96969 22.1658 8.0907C23.2998 10.2117 23.6644 12.6608 23.1974 15.0208C22.7304 17.3808 21.4607 19.5057 19.6046 21.0334C17.7485 22.5611 15.4209 23.3971 13.0183 23.399Z" fill="black"/>
</svg>
