<svg width="215" height="50" viewBox="0 0 215 50" fill="none" xmlns="http://www.w3.org/2000/svg">
<path d="M34.808 49H24.504L15.608 32.104H9.208V49H0.312V13.224C0.312 9.81066 1.10133 7.336 2.68 5.8C4.25867 4.22133 6.904 3.432 10.616 3.432H18.168C22.6907 3.432 26.2747 4.81867 28.92 7.592C31.608 10.3227 32.952 13.8 32.952 18.024C32.952 21.096 32.1413 23.7627 30.52 26.024C28.9413 28.2427 26.9787 29.7787 24.632 30.632L34.808 49ZM17.592 24.68C19.4693 24.68 21.0053 24.04 22.2 22.76C23.4373 21.4373 24.056 19.816 24.056 17.896C24.056 15.9333 23.4587 14.3547 22.264 13.16C21.112 11.9653 19.5547 11.368 17.592 11.368H13.176C10.5307 11.368 9.208 12.712 9.208 15.4V24.68H17.592ZM69.515 49H60.171L53.707 37.8L47.627 49H37.643L49.483 30.376L38.091 12.456H47.435L53.835 23.016L60.043 12.456H69.387L57.995 30.376L69.515 49Z" fill="#37B1B8"/>
<path d="M106.657 35.56C106.657 39.8693 105.078 43.2613 101.921 45.736C98.7637 48.168 94.7317 49.384 89.825 49.384C85.9423 49.384 82.1877 48.3173 78.561 46.184C76.769 45.0747 75.297 43.5173 74.145 41.512C72.993 39.464 72.417 37.1387 72.417 34.536L80.481 34.152C80.481 36.456 81.4623 38.248 83.425 39.528C85.3877 40.808 87.5637 41.448 89.953 41.448C95.2863 41.448 97.953 39.5707 97.953 35.816C97.953 32.744 96.1397 30.9307 92.513 30.376L85.089 29.608C81.377 29.0533 78.433 27.7307 76.257 25.64C74.081 23.5493 72.993 20.5413 72.993 16.616C72.993 12.6907 74.5503 9.448 77.665 6.888C80.7797 4.328 84.705 3.048 89.441 3.048C94.2197 3.048 98.0597 4.264 100.961 6.696C103.862 9.08533 105.313 12.1787 105.313 15.976L97.377 16.36C96.6517 12.648 94.1557 10.792 89.889 10.792C87.2863 10.792 85.2383 11.3467 83.745 12.456C82.2943 13.5653 81.569 14.888 81.569 16.424C81.569 17.9173 82.1023 19.112 83.169 20.008C84.2357 20.8613 85.5583 21.3947 87.137 21.608L94.433 22.376C102.582 23.4853 106.657 27.88 106.657 35.56ZM140.502 32.68H119.19C119.19 36.008 119.702 38.44 120.726 39.976C121.792 41.512 123.904 42.28 127.062 42.28C129.11 42.28 130.624 41.64 131.606 40.36C132.587 39.0373 133.078 37.7787 133.078 36.584H140.566C140.566 41.1493 139.328 44.4987 136.854 46.632C134.422 48.7653 131.179 49.832 127.126 49.832C123.115 49.832 120 49.256 117.782 48.104C113.216 45.7573 110.934 39.528 110.934 29.416C110.934 23.4 112.235 19.0053 114.838 16.232C117.44 13.416 121.408 12.008 126.742 12.008C136 12.008 140.63 17.1493 140.63 27.432C140.63 28.5413 140.587 30.2907 140.502 32.68ZM119.382 26.984H133.078C133.078 24.168 132.544 22.12 131.478 20.84C130.411 19.56 128.768 18.92 126.55 18.92C124.374 18.92 122.624 19.5813 121.302 20.904C120.022 22.184 119.382 24.2107 119.382 26.984ZM175.564 32.68H154.252C154.252 36.008 154.764 38.44 155.788 39.976C156.855 41.512 158.967 42.28 162.124 42.28C164.172 42.28 165.687 41.64 166.668 40.36C167.649 39.0373 168.14 37.7787 168.14 36.584H175.628C175.628 41.1493 174.391 44.4987 171.916 46.632C169.484 48.7653 166.241 49.832 162.188 49.832C158.177 49.832 155.063 49.256 152.844 48.104C148.279 45.7573 145.996 39.528 145.996 29.416C145.996 23.4 147.297 19.0053 149.9 16.232C152.503 13.416 156.471 12.008 161.804 12.008C171.063 12.008 175.692 17.1493 175.692 27.432C175.692 28.5413 175.649 30.2907 175.564 32.68ZM154.444 26.984H168.14C168.14 24.168 167.607 22.12 166.54 20.84C165.473 19.56 163.831 18.92 161.612 18.92C159.436 18.92 157.687 19.5813 156.364 20.904C155.084 22.184 154.444 24.2107 154.444 26.984ZM214.659 49H204.675L195.075 36.072L191.427 41.256V49H183.107V0.871998H191.427V31.272L203.075 13.928H212.483L200.515 30.312L214.659 49Z" fill="#D8B689"/>
</svg>
