<svg width="34" height="34" viewBox="0 0 34 34" fill="none" xmlns="http://www.w3.org/2000/svg">
<circle cx="17" cy="17" r="17" fill="#37B1B8"/>
<g clip-path="url(#clip0_459_142)">
<path fill-rule="evenodd" clip-rule="evenodd" d="M16.1768 10.8127C15.9138 10.6128 15.5907 10.5082 15.2605 10.516H11.7339C11.3473 10.516 10.9766 10.6696 10.7033 10.9429C10.4299 11.2163 10.2764 11.587 10.2764 11.9735V22.0273C10.2764 22.4138 10.4299 22.7846 10.7033 23.0579C10.9766 23.3312 11.3473 23.4848 11.7339 23.4848H22.2664C22.6529 23.4848 23.0236 23.3312 23.297 23.0579C23.5703 22.7846 23.7239 22.4138 23.7239 22.0273V13.8885C23.7239 13.502 23.5703 13.1313 23.297 12.8579C23.0236 12.5846 22.6529 12.431 22.2664 12.431H16.9118L16.71 11.6239C16.6301 11.3009 16.4418 11.0141 16.1768 10.8127ZM19.8603 17.5664C19.0319 17.5664 18.3603 16.8948 18.3603 16.0664C18.3603 15.238 19.0319 14.5664 19.8603 14.5664C20.6888 14.5664 21.3604 15.238 21.3604 16.0664C21.3604 16.8948 20.6888 17.5664 19.8603 17.5664ZM15.5621 17.2146L21.0282 22.2348H11.7339C11.6788 22.2348 11.6261 22.2129 11.5871 22.174C11.5482 22.1351 11.5264 22.0823 11.5264 22.0273V19.5297L14.8095 17.2146C14.9152 17.1283 15.0483 17.081 15.1858 17.081C15.3233 17.081 15.4565 17.1283 15.5621 17.2146Z" fill="white"/>
</g>
<defs>
<clipPath id="clip0_459_142">
<rect width="14" height="14" fill="white" transform="translate(10 10)"/>
</clipPath>
</defs>
</svg>
